<?xml version="1.0" standalone="no"?>
<!DOCTYPE svg PUBLIC "-//W3C//DTD SVG 20010904//EN"
 "http://www.w3.org/TR/2001/REC-SVG-20010904/DTD/svg10.dtd">
<svg version="1.0" xmlns="http://www.w3.org/2000/svg"
 width="261.000000pt" height="70.000000pt" viewBox="0 0 261.000000 70.000000"
 preserveAspectRatio="xMidYMid meet">

<g transform="translate(0.000000,70.000000) scale(0.100000,-0.100000)"
fill="#000000" stroke="none">
<path d="M1634 677 c-2 -7 -6 -27 -7 -43 -2 -28 0 -29 42 -32 51 -4 57 1 66
51 l7 37 -51 0 c-34 0 -53 -5 -57 -13z"/>
<path d="M32 671 c-8 -4 -16 -27 -19 -50 l-6 -41 72 0 c41 0 71 -4 71 -10 0
-6 -18 -94 -40 -196 -22 -103 -40 -190 -40 -196 0 -5 24 -8 52 -6 l53 3 31
145 c18 80 37 171 44 203 l11 57 74 0 74 0 11 40 c6 22 8 45 5 50 -8 12 -374
13 -393 1z"/>
<path d="M1425 668 c-2 -7 -25 -112 -50 -233 -26 -121 -49 -230 -52 -242 -5
-22 -2 -23 46 -23 44 0 51 3 56 22 30 131 95 448 95 465 0 21 -5 23 -45 23
-28 0 -47 -5 -50 -12z"/>
<path d="M529 529 c-99 -58 -146 -266 -76 -336 33 -34 118 -43 165 -19 19 10
33 12 37 6 6 -10 95 -15 95 -6 0 3 16 77 35 166 46 210 46 210 -5 210 -26 0
-42 -6 -48 -16 -9 -16 -11 -16 -33 0 -34 24 -125 21 -170 -5z m142 -69 c37
-20 15 -158 -33 -197 -30 -26 -74 -27 -98 -3 -19 19 -21 28 -15 68 8 55 38
117 62 131 23 13 59 14 84 1z"/>
<path d="M984 531 c-63 -39 -104 -125 -104 -222 0 -70 15 -106 51 -125 37 -18
112 -18 149 1 34 18 37 10 16 -40 -17 -41 -42 -55 -96 -55 -37 0 -42 3 -52 31
-10 28 -13 30 -57 27 -39 -3 -46 -6 -49 -26 -4 -30 21 -68 61 -92 69 -43 216
-18 265 44 28 36 35 62 77 259 46 218 46 217 -5 217 -28 0 -43 -5 -52 -19 -12
-19 -12 -19 -36 0 -34 26 -125 26 -168 0z m148 -78 c35 -32 16 -136 -33 -177
-84 -71 -150 9 -100 120 31 68 92 95 133 57z"/>
<path d="M1613 538 c-6 -7 -24 -83 -42 -169 -18 -85 -34 -165 -38 -177 -5 -21
-2 -22 46 -22 44 0 51 3 56 22 33 145 72 344 69 350 -8 13 -81 9 -91 -4z"/>
<path d="M1823 538 c-6 -7 -24 -83 -42 -168 -18 -85 -35 -165 -38 -178 -5 -22
-3 -23 48 -20 l53 3 26 118 c27 126 46 160 94 173 37 9 74 -3 81 -25 3 -11 -5
-74 -20 -141 -14 -66 -25 -123 -25 -126 0 -3 23 -4 52 -2 l52 3 23 105 c12 58
23 129 23 158 0 46 -4 58 -29 83 -26 25 -37 29 -88 29 -40 0 -68 -6 -90 -20
-33 -20 -33 -20 -33 0 0 17 -7 20 -39 20 -21 0 -43 -6 -48 -12z"/>
<path d="M2364 531 c-74 -34 -125 -125 -128 -226 -1 -44 4 -69 17 -89 48 -73
195 -75 281 -4 20 16 36 38 36 49 0 29 -71 26 -118 -6 -43 -29 -59 -31 -90 -9
-15 11 -22 25 -22 50 l0 34 129 0 130 0 7 46 c9 61 -9 116 -47 148 -26 22 -40
26 -92 26 -39 0 -77 -7 -103 -19z m135 -82 c26 -46 10 -59 -69 -59 -81 0 -89
12 -40 61 38 39 87 38 109 -2z"/>
</g>
</svg>
