<?xml version="1.0" standalone="no"?>
<!DOCTYPE svg PUBLIC "-//W3C//DTD SVG 20010904//EN"
 "http://www.w3.org/TR/2001/REC-SVG-20010904/DTD/svg10.dtd">
<svg version="1.0" xmlns="http://www.w3.org/2000/svg"
 width="319.000000pt" height="109.000000pt" viewBox="0 0 319.000000 109.000000"
 preserveAspectRatio="xMidYMid meet">

<g transform="translate(0.000000,109.000000) scale(0.100000,-0.100000)"
fill="#000000" stroke="none">
<path d="M1700 675 l0 -415 55 0 55 0 0 415 0 415 -55 0 -55 0 0 -415z"/>
<path d="M0 960 l0 -60 85 0 85 0 0 -320 0 -320 60 0 60 0 0 320 0 320 85 0
85 0 0 60 0 60 -230 0 -230 0 0 -60z"/>
<path d="M1973 1000 c-46 -19 -57 -83 -20 -118 43 -41 109 -19 123 40 5 22 0
33 -24 58 -32 31 -43 34 -79 20z"/>
<path d="M620 735 c-54 -25 -108 -83 -126 -138 -26 -77 -16 -181 21 -243 65
-104 189 -139 289 -80 44 26 46 26 46 6 0 -18 6 -20 55 -20 l55 0 0 240 0 240
-55 0 c-52 0 -55 -1 -55 -25 l0 -25 -41 27 c-51 33 -136 41 -189 18z m176
-110 c81 -53 74 -224 -11 -263 -63 -29 -142 -5 -172 51 -25 47 -23 138 3 174
44 60 122 77 180 38z"/>
<path d="M1222 736 c-48 -17 -108 -81 -126 -134 -19 -55 -21 -149 -4 -206 8
-25 31 -59 59 -87 37 -38 57 -49 100 -58 64 -13 136 3 175 40 l24 22 0 -51 c0
-68 -25 -129 -61 -147 -62 -32 -144 -6 -169 54 -12 29 -15 31 -66 31 -48 0
-54 -2 -54 -20 0 -58 56 -130 125 -161 47 -22 129 -24 189 -7 53 16 118 81
134 134 8 28 12 128 12 318 l0 276 -55 0 c-53 0 -55 -1 -55 -27 0 -24 -1 -25
-18 -10 -48 44 -141 58 -210 33z m153 -100 c48 -20 75 -68 75 -134 0 -96 -48
-152 -131 -152 -36 0 -55 6 -78 26 -58 49 -65 164 -14 225 42 50 87 60 148 35z"/>
<path d="M2380 743 c-8 -3 -27 -15 -42 -25 -28 -19 -28 -19 -28 2 0 19 -5 21
-57 18 l-58 -3 -3 -237 -2 -238 60 0 60 0 0 150 c0 109 4 160 15 185 23 58 98
73 140 30 25 -24 25 -27 25 -195 l0 -170 61 0 61 0 -4 188 c-3 205 -10 230
-70 275 -28 21 -126 33 -158 20z"/>
<path d="M2865 735 c-148 -52 -195 -300 -78 -420 20 -20 52 -44 72 -53 53 -23
157 -20 207 6 39 20 114 93 114 111 0 5 -19 20 -43 33 l-43 25 -40 -44 c-36
-39 -44 -43 -87 -43 -28 0 -58 7 -74 17 -23 16 -53 67 -53 93 0 6 60 10 170
10 l170 0 0 43 c0 172 -153 279 -315 222z m133 -96 c29 -10 62 -46 62 -69 0
-6 -39 -10 -105 -10 -58 0 -105 4 -105 9 0 15 42 62 64 71 29 12 48 12 84 -1z"/>
<path d="M1950 500 l0 -240 55 0 55 0 0 240 0 240 -55 0 -55 0 0 -240z"/>
</g>
</svg>
